<?xml version="1.0"?>
<svg xmlns="http://www.w3.org/2000/svg" xmlns:xlink="http://www.w3.org/1999/xlink" xmlns:svgjs="http://svgjs.com/svgjs" version="1.1" width="512" height="512" x="0" y="0" viewBox="0 0 512 512" style="enable-background:new 0 0 512 512" xml:space="preserve" class=""><g><linearGradient id="s" gradientUnits="userSpaceOnUse" x1="256.046" x2="256.046" y1="8" y2="504"><stop stop-opacity="1" stop-color="#b7b6c9" offset="0"/><stop stop-opacity="1" stop-color="#2f256a" offset="1"/></linearGradient><g id="r"><g><g fill="#94c1fa"><rect height="32" rx="16" width="480" x="17.709" y="418.306" fill="#8681a3" data-original="#94c1fa" class=""/><path d="m185.709 450.306 2.526 5.055c13.153 26.319 40.05 42.945 69.472 42.945 29.412 0 56.301-16.615 69.459-42.92l2.542-5.08z" fill="#8681a3" data-original="#94c1fa" class=""/><path d="m41.709 418.306c43.789-43.858 68.389-103.342 68.389-165.366v-47.736c0-75.66 61.238-136.994 136.779-136.994 75.541 0 136.779 61.334 136.779 136.994v47.736c0 62.024 24.6 121.509 68.389 165.366z" fill="#8681a3" data-original="#94c1fa" class=""/><path d="m257.709 50.306c13.812 0 27.123 2.059 39.767 5.689-1.22-20.994-18.467-37.689-39.767-37.689s-38.547 16.695-39.767 37.689c12.645-3.63 25.956-5.689 39.767-5.689z" fill="#8681a3" data-original="#94c1fa" class=""/></g><path d="m480.046 408h-4.576c-43.479-44.649-67.424-103.38-67.424-165.824v-50.176c0-67.322-44.035-124.479-104.783-144.397-3.988-22.472-23.617-39.603-47.217-39.603s-43.192 17.098-47.207 39.536c-25.177 8.238-48.066 22.998-66.083 43.124-2.945 3.293-2.664 8.352.625 11.297 3.281 2.945 8.352 2.672 11.297-.625 25.789-28.809 62.734-45.332 101.367-45.332 74.992 0 136 61.008 136 136v50.176c0 61.567 21.832 119.746 61.734 165.824h-395.467c39.902-46.079 61.734-104.257 61.734-165.824v-50.176c0-21.992 5.086-42.973 15.109-62.355 2.023-3.926.492-8.754-3.438-10.781-3.922-2.035-8.758-.492-10.781 3.43-11.047 21.375-16.891 45.48-16.891 69.707v50.176c0 62.444-23.945 121.175-67.424 165.824h-4.576c-13.234 0-24 10.766-24 24s10.766 24 24 24h147.053l.315.633c14.602 29.219 43.969 47.367 76.633 47.367s62-18.141 76.617-47.344l.328-.656h99.055c4.422 0 8-3.578 8-8s-3.578-8-8-8h-400c-4.414 0-8-3.586-8-8s3.586-8 8-8h448c4.414 0 8 3.586 8 8s-3.586 8-8 8h-16c-4.422 0-8 3.578-8 8s3.578 8 8 8h16c13.234 0 24-10.766 24-24s-10.766-24-24-24zm-253.154-365.046c5.009-11.144 16.163-18.954 29.154-18.954s24.078 7.771 29.107 18.866c-9.43-1.837-19.147-2.866-29.107-2.866-9.868 0-19.61 1.082-29.154 2.954zm29.154 445.046c-24.01 0-45.736-12.136-58.479-32h116.948c-12.746 19.864-34.468 32-58.469 32zm138.344-410.344c-3.125-3.125-3.125-8.188 0-11.312l40-40c3.125-3.125 8.188-3.125 11.312 0s3.125 8.188 0 11.312l-40 40c-1.562 1.562-3.609 2.344-5.656 2.344s-4.094-.781-5.656-2.344zm29.656 26.344h56c4.422 0 8 3.582 8 8s-3.578 8-8 8h-56c-4.422 0-8-3.582-8-8s3.578-8 8-8zm-357.656-66.344c-3.125-3.125-3.125-8.188 0-11.312s8.188-3.125 11.312 0l40 40c3.125 3.125 3.125 8.188 0 11.312-1.562 1.562-3.609 2.344-5.656 2.344s-4.094-.781-5.656-2.344zm-42.344 74.344c0-4.418 3.578-8 8-8h56c4.422 0 8 3.582 8 8s-3.578 8-8 8h-56c-4.422 0-8-3.582-8-8z" fill="url(#s)" data-original="url(#s)" class=""/></g></g></g></svg>
