<?xml version="1.0" encoding="UTF-8"?>
<svg width="40px" height="40px" viewBox="0 0 40 40" version="1.1" xmlns="http://www.w3.org/2000/svg" xmlns:xlink="http://www.w3.org/1999/xlink">
    <title>71F2EBD6-C8DA-42B9-AB2D-C405C07E68CC</title>
    <defs>
        <filter color-interpolation-filters="auto" id="filter-1">
            <feColorMatrix in="SourceGraphic" type="matrix" values="0 0 0 0 0.133333 0 0 0 0 0.286275 0 0 0 0 0.615686 0 0 0 1.000000 0"></feColorMatrix>
        </filter>
    </defs>
    <g id="Symbols" stroke="none" stroke-width="1" fill="none" fill-rule="evenodd">
        <g id="burger-menu-copy-3" filter="url(#filter-1)">
            <g transform="translate(17.000000, 19.500000) scale(-1, 1) translate(-17.000000, -19.500000) translate(14.000000, 8.000000)">
                <path d="M5.12132192,0.878678082 C6.29289269,2.05024886 6.29289269,3.94975114 5.12132192,5.12132192 C3.94975114,6.29289269 2.05024886,6.29289269 0.878678082,5.12132192 C-0.292892694,3.94975114 -0.292892694,2.05024886 0.878678082,0.878678082 C2.05020231,-0.292892694 3.94970459,-0.292892694 5.12132192,0.878678082" id="Path" fill="#000000" fill-rule="nonzero"></path>
                <path d="M5.12132192,9.87867808 C6.29289269,11.0502489 6.29289269,12.9497511 5.12132192,14.1213219 C3.94975114,15.2928927 2.05024886,15.2928927 0.878678082,14.1213219 C-0.292892694,12.9497511 -0.292892694,11.0502489 0.878678082,9.87867808 C2.05020231,8.70710731 3.94970459,8.70710731 5.12132192,9.87867808" id="Path" fill="#000000" fill-rule="nonzero"></path>
                <path d="M5.12132192,17.8786781 C6.29289269,19.0502489 6.29289269,20.9497511 5.12132192,22.1213219 C3.94975114,23.2928927 2.05024886,23.2928927 0.878678082,22.1213219 C-0.292892694,20.9497511 -0.292892694,19.0502489 0.878678082,17.8786781 C2.05020231,16.7071073 3.94970459,16.7071073 5.12132192,17.8786781" id="Path" fill="#000000" fill-rule="nonzero"></path>
            </g>
        </g>
    </g>
</svg>