<?xml version="1.0" encoding="UTF-8"?>
<svg width="40px" height="40px" viewBox="0 0 40 40" version="1.1" xmlns="http://www.w3.org/2000/svg" xmlns:xlink="http://www.w3.org/1999/xlink">
    <title>CEBF32CF-4C79-4E42-8838-A55495D87A2F</title>
    <defs>
        <filter color-interpolation-filters="auto" id="filter-1">
            <feColorMatrix in="SourceGraphic" type="matrix" values="0 0 0 0 0.133333 0 0 0 0 0.286275 0 0 0 0 0.615686 0 0 0 1.000000 0"></feColorMatrix>
        </filter>
    </defs>
    <g id="Symbols" stroke="none" stroke-width="1" fill="none" fill-rule="evenodd">
        <g id="delete" filter="url(#filter-1)">
            <g transform="translate(12.000000, 9.000000)">
                <path d="M6.25823636,1.36437315 L9.74192262,1.36437315 L9.74192262,2 L11,2 L11,1.27539229 C11.000159,0.572167631 10.4728193,0 9.82461763,0 L6.17554136,0 C5.52733971,0 5,0.572167631 5,1.27539229 L5,2 L6.25823636,2 L6.25823636,1.36437315 Z" id="Path" fill="#000000" fill-rule="nonzero"></path>
                <path d="M13.4425145,7 L1.55762384,7 C1.23196878,7 0.975605394,7.27578068 1.00184983,7.59810729 L1.99545791,19.7947304 C2.0508273,20.4756037 2.62292409,21 3.31024034,21 L11.6897379,21 C12.3770542,21 12.949151,20.4756037 13.0045203,19.7945715 L13.9981285,7.59810729 C14.0245329,7.27578068 13.7681695,7 13.4425145,7 L13.4425145,7 Z M4.43539069,19.6990968 C4.42210848,19.6998911 4.40882622,19.7003677 4.39570398,19.7003677 C4.06380785,19.7003677 3.78520069,19.443809 3.76455721,19.110521 L3.1418919,9.09774418 C3.12044825,8.75127088 3.38593317,8.45309097 3.73479219,8.43180373 C4.08253101,8.41083423 4.38418203,8.67374728 4.40562568,9.02037947 L5.02813097,19.0331563 C5.04973463,19.3796296 4.78424971,19.6776507 4.43539069,19.6990968 L4.43539069,19.6990968 Z M8.14017745,19.0719181 C8.14017745,19.418868 7.85676949,19.7002088 7.50711035,19.7002088 C7.15745121,19.7002088 6.87404325,19.418868 6.87404325,19.0719181 L6.87404325,9.05898238 C6.87404325,8.71187364 7.15745121,8.43053285 7.50711035,8.43053285 C7.85660948,8.43053285 8.14017745,8.71187364 8.14017745,9.05898238 L8.14017745,19.0719181 Z M11.8582464,9.09599671 L11.2637459,19.1087736 C11.2440625,19.442697 10.9649753,19.7002088 10.6324391,19.7002088 C10.619957,19.7002088 10.6073148,19.6998911 10.5946727,19.6992556 C10.2456536,19.6787627 9.97936858,19.3813771 10.0000121,19.0349038 L10.5943526,9.02196805 C10.6148361,8.67549475 10.9134466,8.41115197 11.2634258,8.43164488 C11.6124448,8.45197894 11.8787299,8.74952341 11.8582464,9.09599671 L11.8582464,9.09599671 Z" id="Shape" fill="#000000" fill-rule="nonzero"></path>
                <path d="M15.973346,4.44646308 L15.5656876,3.44298414 C15.4582027,3.17845638 15.156617,3 14.8169017,3 L1.18294137,3 C0.843382966,3 0.541640436,3.17845638 0.434312363,3.44298414 L0.0266539627,4.44646308 C-0.051959133,4.63999486 0.0503477431,4.83739207 0.241310108,4.93583303 C0.319138651,4.97590516 0.411246232,5 0.512454712,5 L15.4875453,5 C15.5887538,5 15.6810183,4.97590516 15.7586899,4.93570415 C15.9496523,4.83726323 16.0519591,4.63986599 15.973346,4.44646308 Z" id="Path" fill="#000000" fill-rule="nonzero"></path>
            </g>
        </g>
    </g>
</svg>