<?xml version="1.0" encoding="UTF-8"?>
<svg width="40px" height="40px" viewBox="0 0 40 40" version="1.1" xmlns="http://www.w3.org/2000/svg" xmlns:xlink="http://www.w3.org/1999/xlink">
    <title>4B9BDD4E-DEC7-45A2-ACD9-6997B447D23D</title>
    <defs>
        <filter color-interpolation-filters="auto" id="filter-1">
            <feColorMatrix in="SourceGraphic" type="matrix" values="0 0 0 0 0.133333 0 0 0 0 0.286275 0 0 0 0 0.615686 0 0 0 1.000000 0"></feColorMatrix>
        </filter>
    </defs>
    <g id="Symbols" stroke="none" stroke-width="1" fill="none" fill-rule="evenodd">
        <g id="direct-download" filter="url(#filter-1)">
            <g transform="translate(10.000000, 12.000000)">
                <path d="M10.3225806,11.6129032 C10.1462565,11.6129032 9.97767335,11.5432258 9.85639672,11.4204608 L5.34077747,6.85824885 C4.9494238,6.46341014 5.24014367,5.80645161 5.8069614,5.80645161 L8.17228577,5.80645161 L8.17228577,1.03686636 C8.17228577,0.465345622 8.65481194,0 9.24743321,0 L11.3977281,0 C11.9903494,0 12.4728755,0.465345622 12.4728755,1.03686636 L12.4728755,5.80645161 L14.8381999,5.80645161 C15.4050176,5.80645161 15.6957375,6.46341014 15.3043838,6.85824885 L10.7887646,11.4204608 C10.6674879,11.5432258 10.4989048,11.6129032 10.3225806,11.6129032 Z" id="Path" fill="#000000" fill-rule="nonzero"></path>
                <path d="M18.5416667,16.7741935 L1.45833333,16.7741935 C0.654166667,16.7741935 0,16.141129 0,15.3629032 L0,14.9596774 C0,14.1814516 0.654166667,13.5483871 1.45833333,13.5483871 L18.5416667,13.5483871 C19.3458333,13.5483871 20,14.1814516 20,14.9596774 L20,15.3629032 C20,16.141129 19.3458333,16.7741935 18.5416667,16.7741935 Z" id="Path" fill="#000000" fill-rule="nonzero"></path>
            </g>
        </g>
    </g>
</svg>