<?xml version="1.0" encoding="utf-8"?>
<svg version="1.1" xmlns:xlink="http://www.w3.org/1999/xlink" width="15px" height="12px" xmlns="http://www.w3.org/2000/svg">
  <g transform="matrix(1 0 0 1 -457 -2078 )">
    <path d="M 13.8490513392857 10.828125  C 13.9020647321429 10.7741477272727  13.9285714285714 10.7102272727273  13.9285714285714 10.6363636363636  L 13.9285714285714 4.09090909090909  C 13.75 4.29545454545455  13.5574776785714 4.48295454545455  13.3510044642857 4.65340909090909  C 11.85546875 5.82386363636363  10.6668526785714 6.78409090909091  9.78515625 7.53409090909091  C 9.50055803571428 7.77840909090909  9.26897321428572 7.96875  9.09040178571428 8.10511363636364  C 8.91183035714286 8.24147727272727  8.67047991071429 8.37926136363636  8.36635044642857 8.51846590909091  C 8.06222098214286 8.65767045454545  7.77622767857143 8.72727272727273  7.50837053571429 8.72727272727273  L 7.5 8.72727272727273  L 7.49162946428571 8.72727272727273  C 7.22377232142857 8.72727272727273  6.93777901785714 8.65767045454545  6.63364955357143 8.51846590909091  C 6.32952008928571 8.37926136363636  6.08816964285714 8.24147727272727  5.90959821428571 8.10511363636364  C 5.73102678571429 7.96875  5.49944196428571 7.77840909090909  5.21484375 7.53409090909091  C 4.33314732142857 6.78409090909091  3.14453125 5.82386363636363  1.64899553571429 4.65340909090909  C 1.44252232142857 4.48295454545455  1.25 4.29545454545455  1.07142857142857 4.09090909090909  L 1.07142857142857 10.6363636363636  C 1.07142857142857 10.7102272727273  1.09793526785714 10.7741477272727  1.15094866071429 10.828125  C 1.20396205357143 10.8821022727273  1.26674107142857 10.9090909090909  1.33928571428571 11  L 13.6607142857143 11  C 13.7332589285714 10.9090909090909  13.7960379464286 10.8821022727273  13.8490513392857 10.828125  Z M 13.5393415178571 2.79971590909091  C 13.798828125 2.38778409090909  13.9285714285714 2.01420454545455  13.9285714285714 1.67897727272727  L 13.9285714285714 1.58522727272727  L 13.9285714285714 1.47017045454546  C 13.9285714285714 1.47017045454546  13.9271763392857 1.43323863636363  13.9243861607143 1.359375  C 13.9215959821429 1.28551136363636  13.9132254464286 1.25  13.8992745535714 1.25284090909091  C 13.8853236607143 1.25568181818182  13.8699776785714 1.23011363636364  13.8532366071429 1.17613636363636  C 13.8364955357143 1.12215909090909  13.8113839285714 1.10085227272727  13.7779017857143 1.11221590909091  C 13.7444196428571 1.12357954545455  13.7053571428571 1.11647727272727  13.6607142857143 1  L 1.33928571428571 1  C 1.26674107142857 1.09090909090909  1.20396205357143 1.11789772727273  1.15094866071429 1.171875  C 1.09793526785714 1.22585227272727  1.07142857142857 1.28977272727273  1.07142857142857 1.36363636363636  C 1.07142857142857 2.31818181818182  1.48158482142857 3.125  2.30189732142857 3.78409090909091  C 3.37890625 4.64772727272727  4.49776785714286 5.54829545454546  5.65848214285714 6.48579545454546  C 5.69196428571429 6.51420454545454  5.78962053571429 6.59801136363636  5.95145089285714 6.73721590909091  C 6.11328125 6.87642045454545  6.24162946428571 6.98295454545454  6.33649553571429 7.05681818181818  C 6.43136160714286 7.13068181818182  6.55552455357143 7.22017045454545  6.708984375 7.32528409090909  C 6.86244419642857 7.43039772727273  7.00334821428571 7.50852272727273  7.13169642857143 7.55965909090909  C 7.26004464285714 7.61079545454546  7.38002232142857 7.63636363636364  7.49162946428571 7.63636363636364  L 7.5 7.63636363636364  L 7.50837053571429 7.63636363636364  C 7.61997767857143 7.63636363636364  7.73995535714286 7.61079545454546  7.86830357142857 7.55965909090909  C 7.99665178571429 7.50852272727273  8.13755580357143 7.43039772727273  8.291015625 7.32528409090909  C 8.44447544642857 7.22017045454545  8.56863839285714 7.13068181818182  8.66350446428572 7.05681818181818  C 8.75837053571429 6.98295454545454  8.88671875 6.87642045454545  9.04854910714286 6.73721590909091  C 9.21037946428572 6.59801136363636  9.30803571428572 6.51420454545454  9.34151785714286 6.48579545454546  C 10.5022321428571 5.54829545454546  11.62109375 4.64772727272727  12.6981026785714 3.78409090909091  C 12.9994419642857 3.53977272727273  13.2798549107143 3.21164772727273  13.5393415178571 2.79971590909091  Z M 14.6065848214286 0.400568181818181  C 14.8688616071429 0.667613636363635  15 0.988636363636364  15 1.36363636363636  L 15 10.6363636363636  C 15 11.0113636363636  14.8688616071429 11.3323863636364  14.6065848214286 11.5994318181818  C 14.3443080357143 11.8664772727273  14.0290178571429 12  13.6607142857143 12  L 1.33928571428571 12  C 0.970982142857143 12  0.655691964285714 11.8664772727273  0.393415178571429 11.5994318181818  C 0.131138392857143 11.3323863636364  0 11.0113636363636  0 10.6363636363636  L 0 1.36363636363636  C 0 0.988636363636364  0.131138392857143 0.667613636363635  0.393415178571429 0.400568181818181  C 0.655691964285714 0.133522727272726  0.970982142857143 0  1.33928571428571 0  L 13.6607142857143 0  C 14.0290178571429 0  14.3443080357143 0.133522727272726  14.6065848214286 0.400568181818181  Z " fill-rule="nonzero" fill="#ffffff" stroke="none" transform="matrix(1 0 0 1 457 2078 )" />
  </g>
</svg>