<?xml version="1.0" encoding="UTF-8"?>
<svg width="40px" height="40px" viewBox="0 0 40 40" version="1.1" xmlns="http://www.w3.org/2000/svg" xmlns:xlink="http://www.w3.org/1999/xlink">
    <title>80F4C4C4-E1BF-420D-88AF-520FC4CF0CC7</title>
    <defs>
        <filter color-interpolation-filters="auto" id="filter-1">
            <feColorMatrix in="SourceGraphic" type="matrix" values="0 0 0 0 0.133333 0 0 0 0 0.286275 0 0 0 0 0.615686 0 0 0 1.000000 0"></feColorMatrix>
        </filter>
    </defs>
    <g id="Symbols" stroke="none" stroke-width="1" fill="none" fill-rule="evenodd">
        <g id="bell" filter="url(#filter-1)">
            <g transform="translate(10.000000, 9.000000)">
                <path d="M18.1072184,14.9467616 L18.1058916,14.9467616 C17.4808242,14.9464269 17.1279074,14.6190815 16.925909,13.8529328 C16.7194328,13.0693793 16.7124673,11.9330425 16.7051702,10.7299313 C16.6963804,9.27227388 16.6864298,7.62015065 16.3273767,6.14257812 C16.2849206,5.96786007 16.1099548,5.86092056 15.9368133,5.9037633 C15.7638376,5.94660604 15.6578631,6.12299766 15.7001534,6.29771572 C16.0412952,7.70081552 16.0509142,9.31227161 16.0595381,10.7339478 C16.0671669,11.9797344 16.0741324,13.1564036 16.3018367,14.0202873 C16.4008458,14.3959981 16.5428086,14.704767 16.7262324,14.9467616 L3.27376757,14.9467616 C3.45719145,14.704767 3.59915421,14.3959981 3.69816328,14.0202873 C3.92586757,13.1564036 3.93299889,11.9797344 3.94046187,10.7339478 C3.95190512,8.83196433 3.96500684,6.67627149 4.73618311,5.02649124 C5.60421244,3.16935876 7.32600856,2.26648147 10.0000829,2.26648147 C11.4686347,2.26648147 12.6703429,2.54495929 13.5717069,3.09438396 C14.3533314,3.57067477 14.9271529,4.24762356 15.3260085,5.16388924 C15.3976533,5.32856603 15.5882084,5.40354083 15.7513993,5.33107636 C15.9145901,5.25877923 15.9888884,5.06665631 15.9172436,4.90181213 C15.4692981,3.87291695 14.7924873,3.07714648 13.9055516,2.53659155 C13.339359,2.19150667 12.674489,1.94265058 11.9172436,1.79102746 C11.8409553,0.790749816 11.0105726,0 10.0000829,0 C8.98959325,0 8.15904472,0.790917203 8.08325386,1.79136215 C7.36083585,1.93578906 6.72216923,2.16857912 6.17405365,2.48906288 C5.29209339,3.00484935 4.61179982,3.76514064 4.15207927,4.74851549 C3.32020399,6.52833015 3.30660473,8.76050396 3.29482981,10.7299313 C3.28753266,11.9330425 3.28073305,13.0693793 3.07409096,13.8529328 C2.87209256,14.6190815 2.51917577,14.9464269 1.89410837,14.9467616 L1.89278161,14.9467616 C0.849123098,14.9467616 0,15.8036164 0,16.8569454 C0,17.910107 0.849123098,18.7669619 1.89278161,18.7669619 L3.93614994,18.7669619 C4.11443259,18.7669619 4.25904887,18.6210288 4.25904887,18.4411227 C4.25904887,18.2612167 4.11443259,18.115451 3.93614994,18.115451 L1.89278161,18.115451 C1.20519094,18.115451 0.645632063,17.550797 0.645632063,16.8569454 C0.645632063,16.1630938 1.20502506,15.5986072 1.89261578,15.5984399 L1.89278161,15.5984399 L1.89394253,15.5984399 L18.1058916,15.5984399 L18.1070525,15.5984399 L18.1073842,15.5984399 C18.7948091,15.5986072 19.3542021,16.1630938 19.3542021,16.8569454 C19.3542021,17.550797 18.7946432,18.115451 18.1070525,18.115451 L5.2275799,18.115451 C5.04929725,18.115451 4.90484681,18.2612167 4.90484681,18.4411227 C4.90484681,18.6210288 5.04929725,18.7669619 5.2275799,18.7669619 L6.55284215,18.7669619 C6.71619883,20.5415886 8.19951074,21.9354839 10.0000829,21.9354839 C11.8004892,21.9354839 13.2838011,20.5415886 13.4471578,18.7669619 L18.1072184,18.7669619 C19.1508769,18.7669619 20,17.910107 20,16.8569454 C20,15.8036164 19.1508769,14.9467616 18.1072184,14.9467616 Z M10.0000829,0.651510905 C10.6183507,0.651510905 11.1354534,1.09717584 11.2527053,1.68676562 C10.8563373,1.63957164 10.4390729,1.61497052 10.0000829,1.61497052 C9.56109292,1.61497052 9.14382852,1.6394043 8.74762633,1.68659828 C8.8648783,1.0970085 9.38181514,0.651510905 10.0000829,0.651510905 L10.0000829,0.651510905 Z M10.0000829,21.283973 C8.55591029,21.283973 7.36266015,20.1814418 7.20195694,18.7669619 L12.798043,18.7669619 C12.6373398,20.1814418 11.4440897,21.283973 10.0000829,21.283973 L10.0000829,21.283973 Z" id="Shape" fill="#000000" fill-rule="nonzero"></path>
                <path d="M15.0106353,1.89476124 C15.0166781,1.89790997 15.6150924,2.22570807 16.203838,2.98720053 C16.9925156,4.00705361 17.3922066,5.28112419 17.3922066,6.77411349 C17.3922066,6.95226463 17.5427597,7.09677419 17.7283614,7.09677419 C17.913963,7.09677419 18.0645161,6.95226463 18.0645161,6.77411349 C18.0645161,4.71882948 17.333332,3.35460615 16.719897,2.57223269 C16.0458609,1.71246707 15.3654366,1.34572434 15.3367762,1.33047792 C15.1746553,1.24463395 14.9712705,1.30097938 14.8811458,1.45609515 C14.791021,1.61137668 14.849205,1.8075915 15.0106353,1.89476124 Z" id="Path" fill="#000000" fill-rule="nonzero"></path>
                <path d="M18.2023853,2.53587849 C18.2510367,2.57023324 19.3948885,3.39793158 19.3948885,5.48033275 C19.3948885,5.66048577 19.5304285,5.80645161 19.697522,5.80645161 C19.8646154,5.80645161 20,5.66048577 20,5.48033275 C20,3.02421881 18.5887986,2.0275956 18.528645,1.98636991 C18.3882865,1.89000899 18.2026962,1.93458641 18.1125434,2.08557975 C18.0223907,2.23640553 18.0629594,2.43784171 18.2023853,2.53587849 Z" id="Path" fill="#000000" fill-rule="nonzero"></path>
                <path d="M2.2714091,7.09677419 C2.4569793,7.09677419 2.60750694,6.9522658 2.60750694,6.77411611 C2.60750694,5.28113892 3.00730277,4.00707869 3.79567402,2.98723388 C4.38069488,2.23055348 4.9753826,1.90209517 4.98850198,1.89480346 C5.15025013,1.80846302 5.2089421,1.61258121 5.11935052,1.45696956 C5.02941373,1.30102641 4.82502758,1.24451569 4.66258894,1.33052471 C4.63393342,1.34577101 3.95362447,1.71251076 3.27970258,2.57226941 C2.66654413,3.35463652 1.93548387,4.71884878 1.93548387,6.77411611 C1.93548387,6.9522658 2.08583889,7.09677419 2.2714091,7.09677419 Z" id="Path" fill="#000000" fill-rule="nonzero"></path>
                <path d="M0.947641937,5.80645161 C1.11465099,5.80645161 1.2499672,5.66048516 1.2499672,5.48033139 C1.2499672,3.39959735 2.39153254,2.57139283 2.4418683,2.5360324 C2.58168986,2.43900074 2.62270418,2.23806644 2.53337377,2.0865697 C2.44373259,1.93457023 2.25683776,1.88982505 2.11577338,1.98652153 C2.05580545,2.02774743 0.64516129,3.02420719 0.64516129,5.48033139 C0.64516129,5.66048516 0.780632844,5.80645161 0.947641937,5.80645161 Z" id="Path" fill="#000000" fill-rule="nonzero"></path>
            </g>
        </g>
    </g>
</svg>