<?xml version="1.0" encoding="utf-8"?>
<svg version="1.1" xmlns:xlink="http://www.w3.org/1999/xlink" width="15px" height="17px" xmlns="http://www.w3.org/2000/svg">
  <g transform="matrix(1 0 0 1 -457 -2180 )">
    <path d="M 11.2890625 0.645089285714286  L 14.3359375 3.60491071428571  C 14.5182291666667 3.78199404761905  14.6744791666667 4.02232142857143  14.8046875 4.32589285714286  C 14.9348958333333 4.62946428571429  15 4.90773809523809  15 5.16071428571429  L 15 16.0892857142857  C 15 16.3422619047619  14.9088541666667 16.5572916666667  14.7265625 16.734375  C 14.5442708333333 16.9114583333333  14.3229166666667 17  14.0625 17  L 0.9375 17  C 0.677083333333333 17  0.455729166666667 16.9114583333333  0.2734375 16.734375  C 0.0911458333333333 16.5572916666667  0 16.3422619047619  0 16.0892857142857  L 0 0.910714285714286  C 0 0.657738095238095  0.0911458333333333 0.442708333333333  0.2734375 0.265625  C 0.455729166666667 0.0885416666666673  0.677083333333333 0  0.9375 0  L 9.6875 0  C 9.94791666666667 0  10.234375 0.0632440476190483  10.546875 0.189732142857143  C 10.859375 0.316220238095238  11.1067708333333 0.468005952380952  11.2890625 0.645089285714286  Z M 10.400390625 1.49888392857143  C 10.322265625 1.42299107142857  10.1888020833333 1.35342261904762  10 1.29017857142857  L 10 4.85714285714286  L 13.671875 4.85714285714286  C 13.6067708333333 4.67373511904762  13.53515625 4.54408482142857  13.45703125 4.46819196428571  L 10.400390625 1.49888392857143  Z M 1.25 15.7857142857143  L 13.75 15.7857142857143  L 13.75 6.07142857142857  L 9.6875 6.07142857142857  C 9.42708333333333 6.07142857142857  9.20572916666667 5.9828869047619  9.0234375 5.80580357142857  C 8.84114583333333 5.62872023809524  8.75 5.41369047619047  8.75 5.16071428571429  L 8.75 1.21428571428571  L 1.25 1.21428571428571  L 1.25 15.7857142857143  Z M 4.853515625 13.5658482142857  L 4.189453125 13.5658482142857  L 4.189453125 14.5714285714286  L 6.93359375 14.5714285714286  L 6.93359375 13.5658482142857  L 6.201171875 13.5658482142857  L 7.20703125 12.0385044642857  C 7.23958333333333 11.9942336309524  7.27213541666667 11.9420572916667  7.3046875 11.8819754464286  C 7.33723958333333 11.8218936011905  7.36165364583333 11.7792038690476  7.3779296875 11.75390625  C 7.39420572916667 11.7286086309524  7.40559895833333 11.7159598214286  7.412109375 11.7159598214286  L 7.431640625 11.7159598214286  C 7.43815104166667 11.7412574404762  7.45442708333333 11.7728794642857  7.48046875 11.8108258928571  C 7.49348958333333 11.8361235119048  7.50813802083333 11.8598400297619  7.5244140625 11.8819754464286  C 7.54069010416667 11.9041108630952  7.56022135416667 11.9294084821429  7.5830078125 11.9578683035714  C 7.60579427083333 11.986328125  7.626953125 12.0132068452381  7.646484375 12.0385044642857  L 8.69140625 13.5658482142857  L 7.94921875 13.5658482142857  L 7.94921875 14.5714285714286  L 10.791015625 14.5714285714286  L 10.791015625 13.5658482142857  L 10.126953125 13.5658482142857  L 8.251953125 10.9760044642857  L 10.15625 8.30078125  L 10.810546875 8.30078125  L 10.810546875 7.28571428571429  L 8.0859375 7.28571428571429  L 8.0859375 8.30078125  L 8.80859375 8.30078125  L 7.802734375 9.80915178571429  C 7.77669270833334 9.85342261904762  7.744140625 9.90559895833333  7.705078125 9.96568080357143  C 7.666015625 10.0257626488095  7.63671875 10.0684523809524  7.6171875 10.09375  L 7.59765625 10.1222098214286  L 7.578125 10.1222098214286  C 7.57161458333333 10.096912202381  7.55533854166667 10.0652901785714  7.529296875 10.02734375  C 7.490234375 9.95777529761905  7.43489583333333 9.88504464285714  7.36328125 9.80915178571429  L 6.328125 8.30078125  L 7.0703125 8.30078125  L 7.0703125 7.28571428571429  L 4.23828125 7.28571428571429  L 4.23828125 8.30078125  L 4.90234375 8.30078125  L 6.748046875 10.8811383928571  L 4.853515625 13.5658482142857  Z " fill-rule="nonzero" fill="#ffffff" stroke="none" transform="matrix(1 0 0 1 457 2180 )" />
  </g>
</svg>